<?xml version="1.0" standalone="no"?><!DOCTYPE svg PUBLIC "-//W3C//DTD SVG 1.1//EN" "http://www.w3.org/Graphics/SVG/1.1/DTD/svg11.dtd"><svg t="1612515965747" class="icon" viewBox="0 0 1024 1024" version="1.1" xmlns="http://www.w3.org/2000/svg" p-id="9298" xmlns:xlink="http://www.w3.org/1999/xlink" width="200" height="200"><defs><style type="text/css"></style></defs><path d="M457.3184 124.1088H160.9216c-17.7152 0-32.1024 14.3872-32.1024 32.1024V452.608c0 17.7152 14.3872 32.1024 32.1024 32.1024h296.3968c17.7152 0 32.1024-14.3872 32.1024-32.1024V156.16c0-17.664-14.3872-32.0512-32.1024-32.0512zM867.2256 124.1088h-296.3968c-17.7152 0-32.1024 14.3872-32.1024 32.1024V452.608c0 17.7152 14.3872 32.1024 32.1024 32.1024h296.3968c17.7152 0 32.1024-14.3872 32.1024-32.1024V156.16c0-17.664-14.3872-32.0512-32.1024-32.0512zM457.3184 533.0944H160.9216c-17.7152 0-32.1024 14.3872-32.1024 32.1024v296.3968c0 17.7152 14.3872 32.1024 32.1024 32.1024h296.3968c17.7152 0 32.1024-14.3872 32.1024-32.1024v-296.3968c0-17.664-14.3872-32.1024-32.1024-32.1024zM867.2256 533.0944h-296.3968c-17.7152 0-32.1024 14.3872-32.1024 32.1024v296.3968c0 17.7152 14.3872 32.1024 32.1024 32.1024h296.3968c17.7152 0 32.1024-14.3872 32.1024-32.1024v-296.3968c0-17.664-14.3872-32.1024-32.1024-32.1024z" fill="#9fc6ff" p-id="9299"></path></svg>