<?xml version="1.0" standalone="no"?><!DOCTYPE svg PUBLIC "-//W3C//DTD SVG 1.1//EN" "http://www.w3.org/Graphics/SVG/1.1/DTD/svg11.dtd"><svg t="1612515194623" class="icon" viewBox="0 0 1024 1024" version="1.1" xmlns="http://www.w3.org/2000/svg" p-id="4251" xmlns:xlink="http://www.w3.org/1999/xlink" width="200" height="200"><defs><style type="text/css"></style></defs><path d="M512 122.88a163.84 163.84 0 0 1 163.84 163.84v102.4a163.84 163.84 0 1 1-327.68 0v-102.4a163.84 163.84 0 0 1 163.84-163.84z m0 81.92a81.92 81.92 0 0 0-81.92 81.92v102.4a81.92 81.92 0 1 0 163.84 0v-102.4a81.92 81.92 0 0 0-81.92-81.92zM199.68 632.27904C277.2992 606.69952 381.41952 593.92 512 593.92s234.68032 12.77952 312.32 38.35904A81.92 81.92 0 0 1 880.64 710.08256V819.2a81.92 81.92 0 0 1-81.92 81.92H225.28a81.92 81.92 0 0 1-81.92-81.92v-109.11744a81.92 81.92 0 0 1 56.32-77.824z m40.50944 71.5776a20.48 20.48 0 0 0-14.90944 19.72224V798.72a20.48 20.48 0 0 0 20.48 20.48h532.48a20.48 20.48 0 0 0 20.48-20.48v-75.1616a20.48 20.48 0 0 0-14.90944-19.70176C717.66016 685.17888 627.03616 675.84 512 675.84s-205.63968 9.33888-271.81056 28.01664z" fill="#000000" p-id="4252"></path></svg>