<?xml version="1.0" standalone="no"?><!DOCTYPE svg PUBLIC "-//W3C//DTD SVG 1.1//EN" "http://www.w3.org/Graphics/SVG/1.1/DTD/svg11.dtd"><svg t="1612515172085" class="icon" viewBox="0 0 1024 1024" version="1.1" xmlns="http://www.w3.org/2000/svg" p-id="2788" xmlns:xlink="http://www.w3.org/1999/xlink" width="200" height="200"><defs><style type="text/css"></style></defs><path d="M384.725333 774.698667a96 96 0 1 1 0 192 96 96 0 0 1 0-192z m378.112 0a96 96 0 1 1 0 192 96 96 0 0 1 0-192z m-378.112 64a32 32 0 1 0 0 64 32 32 0 0 0 0-64z m378.112 0a32 32 0 1 0 0 64 32 32 0 0 0 0-64z m-554.666666-721.493334c1.493333 0 2.986667 0.085333 4.48 0.298667a31.914667 31.914667 0 0 1 29.525333 25.813333l19.84 102.058667h480.853333a32 32 0 0 1 4.352 63.701333l-4.352 0.298667H274.602667l52.096 254.805333c10.453333 53.034667 49.493333 95.573333 84.352 99.498667l5.205333 0.298667h320.981333c34.346667 0 74.496-40.021333 87.808-92.074667l1.749334-7.936 59.904-292.992a32 32 0 0 1 63.317333 8.533333l-0.597333 4.266667-59.861334 292.821333c-15.786667 80.128-77.482667 146.474667-144.853333 151.125334l-7.466667 0.256H416.256c-67.712 0-131.242667-63.488-150.357333-142.336l-1.962667-8.832-47.872-234.24a32.256 32.256 0 0 1-1.194667-4.522667l-6.485333-33.024-4.352-21.248a32.512 32.512 0 0 1-0.554667-4.266667L184.32 181.162667H101.461333a32 32 0 0 1 0-64h106.666667z" p-id="2789"></path></svg>